<?xml version="1.0" standalone="no"?>

<!DOCTYPE svg PUBLIC "-//W3C//DTD SVG 20010904//EN"

 "http://www.w3.org/TR/2001/REC-SVG-20010904/DTD/svg10.dtd">

<svg version="1.0" xmlns="http://www.w3.org/2000/svg"

 width="1080.000000pt" height="1080.000000pt" viewBox="0 0 1080.000000 1080.000000"

 preserveAspectRatio="xMidYMid meet">

<path fill="#17161e" stroke="none" d="
M0 540

L0 0

L540 0

L1080 0

L1080 540

L1080 1080

L540 1080

L0 1080

L0 540

Z

"/>

<path fill="#09d372" stroke="none" d="
M141 736

C112 733 85 720 66 700

C58 692 45 673 45 670

C45 668 71 648 74 648

C74 648 78 652 82 658

C97 679 112 691 134 697

C139 699 144 699 157 700

C171 700 174 700 182 698

C193 695 200 692 208 686

C219 678 229 664 235 646

C237 638 237 638 238 585

C238 556 239 496 239 452

C239 408 239 371 240 371

L240 369

L259 369

L278 369

L278 504

C277 638 277 640 275 649

C266 688 243 716 209 729

C194 735 186 736 164 736

C153 737 143 737 141 736

Z

M491 735

C469 731 441 719 425 708

C400 690 380 662 370 631

C365 617 364 608 364 587

C364 568 365 560 371 542

C386 492 431 452 485 441

C499 438 522 437 537 439

C558 441 583 450 599 459

C666 500 690 585 655 656

C649 668 643 676 630 689

C608 712 580 728 548 734

C533 737 505 738 491 735

Z

M552 695

C573 688 586 680 599 666

C609 656 614 648 620 635

C626 622 629 613 630 597

C631 586 631 583 630 574

C626 545 616 525 597 507

C587 497 580 492 569 486

C551 477 536 474 512 475

C493 476 482 478 468 485

C455 491 447 497 437 506

C419 525 408 549 405 577

C403 597 406 618 415 637

C422 650 427 657 437 668

C453 683 469 692 491 698

C499 700 501 700 521 700

C542 699 542 699 552 695

Z

M748 730

C747 728 747 388 748 377

L748 369

L878 369

L1009 370

L1009 385

C1009 396 1009 402 1008 403

C1007 404 989 404 898 404

L789 404

L788 406

C788 407 788 435 788 469

L788 530

L886 530

C940 530 985 531 986 531

C987 532 987 536 987 548

C987 560 987 564 986 565

C985 565 940 566 886 566

L788 567

L788 630

C788 664 788 693 788 694

L789 696

L865 696

C906 696 956 697 976 697

L1012 698

L1012 715

L1012 732

L880 732

L748 732

L748 730

Z

"/>

<path fill="#d9dbda" stroke="none" d="
M141 736

C109 732 79 716 60 693

C53 683 46 672 46 670

C46 668 70 649 74 649

C74 649 77 653 80 657

C95 678 112 691 134 698

C142 700 144 700 160 700

C175 700 177 700 186 698

C217 688 237 661 239 624

C239 617 240 557 240 491

L241 370

L259 370

L278 370

L278 486

C278 609 278 635 274 650

C270 665 263 682 255 694

C243 709 222 724 202 731

C188 736 159 738 141 736

Z

M749 731

C748 731 748 650 748 551

C748 408 748 371 749 370

C750 370 808 369 879 369

L1008 369

L1008 386

L1008 403

L899 403

C832 403 789 403 788 404

C787 405 786 413 786 467

C786 511 786 529 787 529

C788 530 817 531 887 531

L987 532

L987 547

C987 559 987 563 986 564

C985 565 958 565 885 565

L787 566

L787 630

C787 666 787 695 787 696

C788 696 838 697 899 697

L1011 698

L1011 715

L1011 732

L880 732

C808 732 749 732 749 731

Z

"/>

</svg>

